<svg width="32" height="32" viewBox="0 0 32 32" fill="none" xmlns="http://www.w3.org/2000/svg">
  <defs>
    <linearGradient id="shieldGradient" x1="0%" y1="0%" x2="100%" y2="100%">
      <stop offset="0%" style="stop-color:#0ea5e9;stop-opacity:1" />
      <stop offset="100%" style="stop-color:#0284c7;stop-opacity:1" />
    </linearGradient>
  </defs>
  
  <!-- Shield Background -->
  <path d="M16 2L26 6V14C26 20.5 22.5 26.5 16 30C9.5 26.5 6 20.5 6 14V6L16 2Z" 
        fill="url(#shieldGradient)" 
        stroke="#0369a1" 
        stroke-width="1"/>
  
  <!-- Inner Shield -->
  <path d="M16 4L24 7V13.5C24 19 21.2 24 16 27C10.8 24 8 19 8 13.5V7L16 4Z" 
        fill="#ffffff" 
        fill-opacity="0.9"/>
  
  <!-- CMS Text -->
  <text x="16" y="13" 
        font-family="Arial, sans-serif" 
        font-size="8" 
        font-weight="bold" 
        text-anchor="middle" 
        fill="#0369a1">CMS</text>
  
  <!-- Security Checkmark -->
  <path d="M12 16L14.5 18.5L20 13" 
        stroke="#0ea5e9" 
        stroke-width="2" 
        stroke-linecap="round" 
        stroke-linejoin="round" 
        fill="none"/>
  
  <!-- Data Protection Symbol -->
  <circle cx="16" cy="22" r="2" fill="#0ea5e9" fill-opacity="0.3"/>
  <path d="M14.5 22H17.5M16 20.5V23.5" 
        stroke="#0369a1" 
        stroke-width="1.5" 
        stroke-linecap="round"/>
</svg> 